<svg version="1.1" viewBox="0.0 0.0 1000.0 1000.0" fill="none" stroke="none" stroke-linecap="square" stroke-miterlimit="10" xmlns:xlink="http://www.w3.org/1999/xlink" xmlns="http://www.w3.org/2000/svg"><clipPath id="ged8be54aab_0_10.0"><path d="m0 0l1000.0 0l0 1000.0l-1000.0 0l0 -1000.0z" clip-rule="nonzero"/></clipPath><g clip-path="url(#ged8be54aab_0_10.0)"><path fill="#000000" fill-opacity="0.0" d="m0 0l1000.0 0l0 1000.0l-1000.0 0z" fill-rule="evenodd"/><path fill="#fbf1c7" d="m-0.0131233595 36.07l0 0c0 -19.92091 16.149088 -36.07 36.07 -36.07l927.86 0c9.566345 0 18.740906 3.8002212 25.505371 10.564658c6.7644043 6.7644377 10.564636 15.938983 10.564636 25.50534l0 927.86c0 19.920898 -16.149109 36.070007 -36.070007 36.070007l-927.86 0c-19.920912 0 -36.07 -16.149109 -36.07 -36.070007z" fill-rule="evenodd"/><path fill="#000000" fill-opacity="0.0" d="m-179.77197 191.7664l1221.0709 0l0 641.5433l-1221.0709 0z" fill-rule="evenodd"/><path fill="#282828" d="m-71.52038 598.082q8.203125 0 11.03125 11.8125q2.828125 11.8125 2.828125 35.9375q0 24.640625 -3.09375 36.1875q-3.078125 11.546875 -10.765625 11.546875l-96.00001 0q-7.703125 0 -10.78125 -11.546875q-3.078125 -11.546875 -3.078125 -36.1875q0 -24.125 2.828125 -35.9375q2.8125 -11.8125 11.03125 -11.8125l96.00001 0zm95.992355 0q8.203127 0 11.031252 11.8125q2.828125 11.8125 2.828125 35.9375q0 24.640625 -3.09375 36.1875q-3.078125 11.546875 -10.765627 11.546875l-96.0 0q-7.703125 0 -10.78125 -11.546875q-3.078125 -11.546875 -3.078125 -36.1875q0 -24.125 2.828125 -35.9375q2.8125 -11.8125 11.03125 -11.8125l96.0 0zm69.81154 -110.868286q-16.4375 0 -23.875 -14.890625q-7.4375 -14.890625 -7.4375 -35.421875q0 -13.34375 2.5625 -24.640625l17.96875 0q0.515625 17.96875 4.109375 24.90625q3.59375 6.921875 10.265625 6.921875q10.265625 0 14.890625 -10.265625q4.609375 -10.265625 7.171875 -27.203125l17.453117 3.59375q-2.046875 27.203125 10.265625 27.203125q5.65625 0 8.734375 -6.671875q3.078125 -6.671875 3.59375 -24.125l17.96875 0l0.515625 8.203125q0 22.59375 -7.453125 41.84375q-7.4375 19.25 -24.890625 19.25q-14.375 0 -20.531242 -12.328125l-2.0625 0q-10.265625 23.625 -29.25 23.625zm76.477684 30.790161q9.75 30.796875 9.75 66.734375q0 27.203125 -5.640625 52.359375q-5.640625 25.15625 -15.921875 41.578125q-21.546875 6.15625 -56.968742 10.53125q-35.421875 4.359375 -77.515625 4.359375q-7.703125 0 -10.78125 -11.546875q-3.078125 -11.546875 -3.078125 -36.1875q0 -24.125 2.828125 -35.9375q2.8125 -11.8125 11.03125 -11.8125q54.921875 0 81.109375 -6.15625q-4.109375 -17.453125 -10.015625 -34.390625q-5.90625 -16.9375 -6.921875 -20.53125l82.12499 -19.0zm-1.53125 243.82812q1.03125 7.703125 -11.296875 25.15625q-12.3125 17.453125 -21.046875 23.609375q-9.749992 -4.109375 -24.640617 -14.125q-14.875 -10.0 -22.0625 -18.21875q-5.140625 9.25 -13.359375 19.0q-8.203125 9.75 -13.34375 13.34375q-10.265625 -4.625 -26.1875 -15.65625q-15.906252 -11.03125 -22.578127 -18.734375q3.078125 -10.78125 15.390625 -28.75q12.328127 -17.96875 20.546877 -17.96875q8.21875 0 24.640625 11.546875q16.421875 11.5625 20.015625 19.25q7.1875 -12.828125 14.890625 -21.8125q7.703125 -8.984375 13.859375 -8.984375q8.218742 0 25.921867 12.578125q17.703125 12.578125 19.25 19.765625zm228.93594 -163.75q8.21875 0 11.03125 11.8125q2.828125 11.8125 2.828125 35.9375q0 24.640625 -3.078125 36.1875q-3.078125 11.546875 -10.78125 11.546875q-18.984375 0 -40.03125 -3.078125q-12.84375 37.46875 -33.375 71.609375q-20.53125 34.140625 -41.0625 58.78125q-16.421875 -6.171875 -40.8125 -22.34375q-24.375 -16.15625 -36.703125 -30.015625q1.546875 -2.0625 3.84375 -4.125q2.3125 -2.046875 4.375 -4.609375q43.109375 -44.65625 64.671875 -77.0q-30.28125 -6.671875 -50.8125 -25.40625q-20.53125 -18.734375 -20.53125 -46.96875q0 -25.15625 13.859375 -51.59375q13.859375 -26.4375 35.15625 -43.625q21.296875 -17.203094 42.34375 -17.203094q22.59375 0 39.015625 14.3749695q16.4375 14.375 25.40625 36.96875q8.984375 22.578125 10.53125 47.734375q16.421875 1.015625 24.125 1.015625zm-137.57812 -7.1875q3.09375 5.65625 26.1875 8.734375q12.3125 1.53125 25.671875 1.53125q11.28125 0 16.421875 -0.5q-8.734375 -10.78125 -21.828125 -17.703125q-13.078125 -6.9375 -25.40625 -6.9375q-9.234375 0 -15.140625 3.84375q-5.90625 3.84375 -5.90625 11.03125zm197.64398 -237.1485q-3.078125 -3.078125 -5.640625 -12.828125q-2.578125 -9.765625 -2.578125 -16.953125l0 -2.5625q18.484375 -8.21875 42.359375 -14.109375q23.859375 -5.90625 45.421875 -8.484375q4.109375 11.296875 4.109375 26.703125q0 9.234375 -1.03125 12.828125q-13.859375 1.03125 -42.859375 6.6875q-29.0 5.640625 -39.78125 8.71875zm130.88855 244.336q8.21875 0 11.03125 11.8125q2.828125 11.8125 2.828125 35.9375q0 24.640625 -3.078125 36.1875q-3.078125 11.546875 -10.78125 11.546875q-24.640625 0 -40.8125 -4.875q-16.15625 -4.875 -25.140625 -11.546875q-8.984375 -6.671875 -19.25 -17.453125q-22.59375 15.390625 -53.90625 24.640625q-31.3125 9.234375 -51.84375 9.234375q-7.703125 0 -10.78125 -11.546875q-3.078125 -11.546875 -3.078125 -36.1875q0 -24.125 2.828125 -35.9375q2.8125 -11.8125 11.03125 -11.8125q44.140625 0 68.78125 -6.15625q-14.375 -30.28125 -47.734375 -30.28125q-3.59375 -5.140625 -6.671875 -23.875q-3.078125 -18.734375 -2.0625 -32.59372q50.828125 -22.078125 96.0 -22.078125q33.359375 0 53.125 13.859375q19.765625 13.859375 19.765625 41.078094q-11.296875 28.734375 -31.828125 57.484375q14.890625 2.5625 36.96875 2.5625l4.609375 0zm-84.171875 -145.78122q-10.78125 -4.109375 -28.234375 -16.171875q-17.453125 -12.0625 -24.140625 -20.78125q1.546875 -6.6875 7.953125 -18.234375q6.421875 -11.546875 14.640625 -21.046875q8.21875 -9.5 14.375 -10.515625q5.640625 -1.03125 17.1875 5.140625q11.5625 6.15625 21.5625 15.140625q10.015625 8.96875 11.046875 14.109375q2.046875 7.703125 -11.5625 26.953125q-13.59375 19.25 -22.828125 25.40625zm174.01184 -270.01068q17.453125 0 29.25 15.65625q11.8125 15.65625 13.359375 52.109375q-7.703125 13.343765 -42.359375 26.17189q-34.640625 12.828125 -75.71875 22.078125q-2.5625 -6.171875 -4.359375 -17.203125q-1.796875 -11.03125 -1.796875 -17.703125q18.484375 -3.59375 46.71875 -11.812515q-6.671875 -15.390625 -6.671875 -28.234375q0 -18.484375 12.328125 -29.765625q12.3125 -11.296875 29.25 -11.296875zm-13.859375 62.625q23.609375 -7.1875 28.75 -11.296875q-0.515625 -7.703125 -4.890625 -12.0625q-4.359375 -4.359375 -10.0 -4.359375q-7.1875 0 -11.296875 4.875q-4.109375 4.875 -4.109375 12.578125q0 4.625 1.546875 10.265625zm-22.069824 138.60524q-16.4375 0 -23.875 -14.890625q-7.4375 -14.890625 -7.4375 -35.421875q0 -13.34375 2.5625 -24.640625l17.96875 0q0.515625 17.96875 4.109375 24.90625q3.59375 6.921875 10.265625 6.921875q10.265625 0 14.890625 -10.265625q4.609375 -10.265625 7.171875 -27.203125l17.453125 3.59375q-2.046875 27.203125 10.265625 27.203125q5.65625 0 8.734375 -6.671875q3.078125 -6.671875 3.59375 -24.125l17.96875 0l0.515625 8.203125q0 22.59375 -7.453125 41.84375q-7.4375 19.25 -24.890625 19.25q-14.375 0 -20.53125 -12.328125l-2.0625 0q-10.265625 23.625 -29.25 23.625zm108.81293 214.56165q8.21875 0 11.03125 11.8125q2.828125 11.8125 2.828125 35.9375q0 24.640625 -3.078125 36.1875q-3.078125 11.546875 -10.78125 11.546875q-22.578125 0 -43.375 -6.40625q-20.78125 -6.421875 -34.125 -17.203125q-34.40625 23.609375 -85.21875 23.609375q-7.703125 0 -10.78125 -11.546875q-3.078125 -11.546875 -3.078125 -36.1875q0 -24.125 2.828125 -35.9375q2.8125 -11.8125 11.03125 -11.8125q31.3125 0 57.5 -1.53125q-1.546875 -36.96875 -6.421875 -87.78122q-4.875 -50.828125 -6.421875 -67.25q-1.53125 -11.296875 -3.59375 -33.875l83.15625 -4.625q6.171875 99.59375 7.1875 184.79684l0 10.265625l31.3125 0zm123.724976 -195.06247q7.1875 120.12497 7.1875 176.0781q0 30.28125 -4.625 55.4375q-4.625 25.15625 -16.421875 46.203125q-35.421875 11.28125 -109.859375 12.828125q-7.703125 0 -10.78125 -11.546875q-3.078125 -11.546875 -3.078125 -36.1875q0 -24.125 2.828125 -35.9375q2.8125 -11.8125 11.03125 -11.8125q33.875 0 56.984375 -2.046875q-1.03125 -30.796875 -4.890625 -73.40625q-3.84375 -42.609344 -7.953125 -84.703094l-3.078125 -30.28125l82.65625 -4.625zm46.713013 289.5156q2.5625 -41.0625 2.5625 -85.203125q0 -82.65625 -6.15625 -199.68747l83.15625 -4.625q6.671875 98.5625 6.671875 186.85934q0 55.953125 -2.0625 90.859375q-10.765625 6.15625 -34.390625 10.015625q-23.609375 3.84375 -46.703125 4.359375l-3.078125 -2.578125z" fill-rule="nonzero"/></g></svg>